<?xml version="1.0" standalone="no"?>
<!DOCTYPE svg PUBLIC "-//W3C//DTD SVG 20010904//EN"
 "http://www.w3.org/TR/2001/REC-SVG-20010904/DTD/svg10.dtd">
<svg version="1.0" xmlns="http://www.w3.org/2000/svg"
 width="100" height="35" viewBox="0 0 800.000000 280.000000"
 preserveAspectRatio="xMidYMid meet">

<g transform="translate(0.000000,280.000000) scale(0.100000,-0.100000)"
fill="#ff0000" stroke="none">
<path d="M5075 2221 l-120 -6 -119 -57 c-65 -32 -124 -58 -131 -58 -9 0 -10
11 -4 43 4 23 8 48 9 55 0 9 -34 12 -140 12 -77 0 -140 -3 -140 -7 -1 -32
-120 -797 -125 -802 -4 -3 -12 1 -19 10 -10 15 -19 15 -84 4 -41 -7 -72 -8
-72 -3 0 5 29 47 65 93 59 75 64 85 48 93 -42 23 -306 142 -309 140 -1 -2 -25
-43 -54 -93 -62 -108 -73 -120 -68 -81 3 28 1 30 -112 72 -63 23 -118 39 -121
36 -4 -4 -16 -45 -28 -92 -45 -173 -42 -169 -139 -237 -48 -34 -89 -60 -91
-58 -2 2 33 39 78 82 l81 78 -75 120 c-41 66 -79 120 -84 120 -6 0 -92 -70
-191 -155 -208 -178 -188 -130 -162 -390 l17 -165 130 -2 130 -2 100 119 c54
66 100 118 102 116 2 -1 -10 -54 -27 -117 -16 -63 -30 -115 -30 -116 0 -2 44
-3 98 -3 l99 0 153 248 c84 136 154 248 155 250 5 5 70 -9 85 -18 10 -6 2 -26
-38 -89 -28 -45 -49 -81 -45 -81 3 0 93 16 200 36 107 20 196 34 199 31 3 -3
-6 -82 -20 -176 -14 -93 -26 -177 -26 -186 0 -13 20 -15 130 -15 126 0 130 1
135 23 6 26 65 400 65 412 0 4 112 4 249 0 l248 -7 6 24 c4 13 41 190 82 394
42 203 79 379 82 392 4 19 2 22 -23 20 -16 -1 -83 -4 -149 -7z m-155 -168 c0
-24 -77 -473 -81 -477 -9 -8 -229 -12 -229 -4 0 12 48 314 56 351 5 24 23 36
122 87 65 32 120 59 125 59 4 1 7 -7 7 -16z m-1640 -613 c0 -15 -7 -20 -27
-20 -25 0 -26 0 -8 20 10 11 22 20 27 20 4 0 8 -9 8 -20z m-2 -185 c7 -7 -29
-34 -46 -35 -13 0 -33 40 -26 52 4 7 62 -7 72 -17z"/>
<path d="M873 1971 c-166 -142 -291 -256 -288 -263 7 -21 205 -727 205 -733 0
-3 137 -5 304 -5 l303 0 15 93 c9 50 15 93 13 95 -1 1 -83 6 -181 10 l-178 7
-49 228 -49 227 163 170 c89 94 170 170 179 170 9 0 44 3 77 6 l61 7 28 -88
c28 -84 48 -111 63 -86 12 19 74 392 66 399 -4 4 -104 8 -223 10 l-217 4 -292
-251z"/>
<path d="M5983 1971 c-166 -142 -291 -256 -288 -263 7 -21 205 -727 205 -733
0 -3 137 -5 304 -5 l303 0 15 93 c9 50 15 93 13 95 -1 1 -83 6 -181 10 l-178
7 -49 228 -49 227 163 170 c89 94 170 170 179 170 9 0 44 3 77 6 l61 7 28 -88
c28 -84 48 -111 63 -86 12 19 74 392 66 399 -4 4 -104 8 -223 10 l-217 4 -292
-251z"/>
<path d="M2406 1782 c-32 -191 -62 -355 -67 -364 -10 -18 -168 -133 -174 -126
-2 2 20 69 50 148 29 80 50 148 47 151 -10 9 -233 92 -237 88 -1 -2 -15 -58
-29 -124 -25 -116 -28 -121 -69 -158 -100 -91 -148 -130 -153 -125 -2 3 20 74
51 158 31 84 52 157 48 161 -16 15 -227 89 -234 82 -6 -7 -150 -696 -146 -699
1 -1 48 -4 103 -7 l101 -6 96 89 c52 50 98 90 101 90 30 0 -31 -83 -262 -358
-148 -175 -272 -324 -276 -330 -5 -9 58 -12 258 -12 l264 0 81 253 c45 138 87
264 94 278 20 43 257 286 257 263 0 -10 -9 -71 -20 -134 -11 -63 -20 -118 -20
-122 0 -5 38 -8 84 -8 l84 0 12 50 c7 28 14 50 16 50 3 0 38 -22 79 -50 71
-48 77 -50 143 -50 l69 0 122 276 c67 152 120 281 119 286 -2 4 -55 37 -117
72 l-115 64 -90 -83 c-56 -52 -92 -79 -94 -70 -2 10 92 397 124 506 3 12 -4
20 -23 27 -15 6 -71 26 -124 45 l-95 35 -58 -346z m280 -359 c-3 -10 -12 -67
-22 -128 -9 -60 -18 -114 -21 -118 -6 -10 -33 14 -84 74 -49 59 -45 71 41 138
69 53 95 63 86 34z m-921 -747 c-14 -36 -23 -46 -47 -51 -16 -4 -31 -5 -33 -3
-3 2 16 28 42 57 25 28 48 50 50 47 3 -3 -3 -25 -12 -50z"/>
<path d="M5231 1475 c-83 -113 -151 -208 -151 -213 0 -4 23 -71 51 -149 l52
-143 148 0 149 0 85 170 86 171 9 122 c5 67 10 136 10 153 l0 30 -127 28 c-71
15 -135 29 -145 32 -12 3 -56 -49 -167 -201z m304 -27 c-12 -104 -12 -103 -87
-153 -38 -25 -72 -44 -75 -42 -2 3 23 59 56 126 55 108 64 121 87 121 25 0 26
-1 19 -52z"/>
</g>
</svg>
